REM DIRINDEX 1\2\4\18,1\2\4\19,1\2\5\20,1\2\5\21,1\2\6\22,1\2\6\23,1\2\7\24,1\2\7\25,1\2\8\26,1\2\8\27,1\2\9\28,1\2\9\29,1\2\10\30,1\3\11\31,1\3\11\32,1\3\11\33,1\3\11\34,1\3\11\35,1\3\12\36,1\3\12\37,1\3\12\38,1\3\12\39,1\3\12\40,1\3\13\41,1\3\13\42,1\3\13\43,1\3\13\44,1\3\13\45,1\3\14\46,1\3\14\47,1\3\14\48,1\3\14\49,1\3\15\50,1\3\15\51,1\3\15\52,1\3\15\53,1\3\15\54,1\3\16\55,1\3\16\56,1\3\16\57,1\3\16\58,1\3\16\59,1\3\17\60,1\3\17\61
REM DIRNAME "folder01","folder02","folder03","folder04","folder05","folder06","folder07","folder08","folder09","folder10","folder11","folder12","folder13","folder14","folder15","folder16","folder17","folder18","folder19","folder20","folder21","folder22","folder23","folder24","folder25","folder26","folder27","folder28","folder29","folder30","folder31","folder32","folder33","folder34","folder35","folder36","folder37","folder38","folder39","folder40","folder41","folder42","folder43","folder44","folder45","folder46","folder47","folder48","folder49","folder50","folder51","folder52","folder53","folder54","folder55","folder56","folder57","folder58","folder59","folder60","folder61"
TITLE ""
FILE "TOEIC LR Kinnojyukugo_14.mp3" MP3
  TRACK 01 AUDIO
    TITLE "0:"
    INDEX 01 00:00:00
  TRACK 02 AUDIO
    TITLE "60:cjc160_5376"
    INDEX 01 00:00:12
  TRACK 03 AUDIO
    TITLE "0:"
    INDEX 01 00:01:41
  TRACK 04 AUDIO
    TITLE "61:cjc160_5377"
    INDEX 01 00:01:72
  TRACK 05 AUDIO
    TITLE "0:"
    INDEX 01 00:03:36
  TRACK 06 AUDIO
    TITLE "60:cjc160_5378"
    INDEX 01 00:04:37
  TRACK 07 AUDIO
    TITLE "0:"
    INDEX 01 00:06:15
  TRACK 08 AUDIO
    TITLE "61:cjc160_5379"
    INDEX 01 00:06:52
  TRACK 09 AUDIO
    TITLE "0:"
    INDEX 01 00:08:14
  TRACK 10 AUDIO
    TITLE "60:cjc160_5380"
    INDEX 01 00:09:15
  TRACK 11 AUDIO
    TITLE "0:"
    INDEX 01 00:10:34
  TRACK 12 AUDIO
    TITLE "61:cjc160_5381"
    INDEX 01 00:10:71
  TRACK 13 AUDIO
    TITLE "0:"
    INDEX 01 00:12:23
  TRACK 14 AUDIO
    TITLE "60:cjc160_5382"
    INDEX 01 00:13:27
  TRACK 15 AUDIO
    TITLE "0:"
    INDEX 01 00:14:54
  TRACK 16 AUDIO
    TITLE "61:cjc160_5383"
    INDEX 01 00:15:18
  TRACK 17 AUDIO
    TITLE "0:"
    INDEX 01 00:16:58
  TRACK 18 AUDIO
    TITLE "60:cjc160_5384"
    INDEX 01 00:17:58
  TRACK 19 AUDIO
    TITLE "0:"
    INDEX 01 00:20:54
  TRACK 20 AUDIO
    TITLE "61:cjc160_5385"
    INDEX 01 00:21:22
  TRACK 21 AUDIO
    TITLE "0:"
    INDEX 01 00:22:51
  TRACK 22 AUDIO
    TITLE "60:cjc160_5386"
    INDEX 01 00:23:54
  TRACK 23 AUDIO
    TITLE "0:"
    INDEX 01 00:24:68
  TRACK 24 AUDIO
    TITLE "61:cjc160_5387"
    INDEX 01 00:25:28
  TRACK 25 AUDIO
    TITLE "0:"
    INDEX 01 00:26:55
  TRACK 26 AUDIO
    TITLE "60:cjc160_5388"
    INDEX 01 00:27:52
  TRACK 27 AUDIO
    TITLE "0:"
    INDEX 01 00:29:18
  TRACK 28 AUDIO
    TITLE "61:cjc160_5389"
    INDEX 01 00:29:49
  TRACK 29 AUDIO
    TITLE "0:"
    INDEX 01 00:31:21
  TRACK 30 AUDIO
    TITLE "60:cjc160_5390"
    INDEX 01 00:32:18
  TRACK 31 AUDIO
    TITLE "0:"
    INDEX 01 00:33:61
  TRACK 32 AUDIO
    TITLE "61:cjc160_5391"
    INDEX 01 00:34:25
  TRACK 33 AUDIO
    TITLE "0:"
    INDEX 01 00:35:65
  TRACK 34 AUDIO
    TITLE "60:cjc160_5392"
    INDEX 01 00:36:65
  TRACK 35 AUDIO
    TITLE "0:"
    INDEX 01 00:37:70
  TRACK 36 AUDIO
    TITLE "61:cjc160_5393"
    INDEX 01 00:38:32
  TRACK 37 AUDIO
    TITLE "0:"
    INDEX 01 00:40:06
  TRACK 38 AUDIO
    TITLE "60:cjc160_5394"
    INDEX 01 00:41:05
  TRACK 39 AUDIO
    TITLE "0:"
    INDEX 01 00:42:34
  TRACK 40 AUDIO
    TITLE "61:cjc160_5395"
    INDEX 01 00:42:73
  TRACK 41 AUDIO
    TITLE "0:"
    INDEX 01 00:44:59
  TRACK 42 AUDIO
    TITLE "60:cjc160_5396"
    INDEX 01 00:45:60
  TRACK 43 AUDIO
    TITLE "0:"
    INDEX 01 00:48:41
  TRACK 44 AUDIO
    TITLE "61:cjc160_5397"
    INDEX 01 00:49:05
  TRACK 45 AUDIO
    TITLE "0:"
    INDEX 01 00:50:18
  TRACK 46 AUDIO
    TITLE "60:cjc160_5398"
    INDEX 01 00:51:27
  TRACK 47 AUDIO
    TITLE "0:"
    INDEX 01 00:52:64
  TRACK 48 AUDIO
    TITLE "61:cjc160_5399"
    INDEX 01 00:53:28
  TRACK 49 AUDIO
    TITLE "0:"
    INDEX 01 00:54:49
  TRACK 50 AUDIO
    TITLE "60:cjc160_5400"
    INDEX 01 00:55:60
  TRACK 51 AUDIO
    TITLE "0:"
    INDEX 01 00:59:60
  TRACK 52 AUDIO
    TITLE "61:cjc160_5401"
    INDEX 01 01:00:22
  TRACK 53 AUDIO
    TITLE "0:"
    INDEX 01 01:02:29
  TRACK 54 AUDIO
    TITLE "60:cjc160_5402"
    INDEX 01 01:03:27
  TRACK 55 AUDIO
    TITLE "0:"
    INDEX 01 01:04:49
  TRACK 56 AUDIO
    TITLE "61:cjc160_5403"
    INDEX 01 01:05:14
  TRACK 57 AUDIO
    TITLE "0:"
    INDEX 01 01:06:58
  TRACK 58 AUDIO
    TITLE "60:cjc160_5404"
    INDEX 01 01:07:58
  TRACK 59 AUDIO
    TITLE "0:"
    INDEX 01 01:08:67
  TRACK 60 AUDIO
    TITLE "61:cjc160_5405"
    INDEX 01 01:09:31
  TRACK 61 AUDIO
    TITLE "0:"
    INDEX 01 01:10:62
  TRACK 62 AUDIO
    TITLE "60:cjc160_5406"
    INDEX 01 01:11:63
  TRACK 63 AUDIO
    TITLE "0:"
    INDEX 01 01:13:01
  TRACK 64 AUDIO
    TITLE "61:cjc160_5407"
    INDEX 01 01:13:41
  TRACK 65 AUDIO
    TITLE "0:"
    INDEX 01 01:15:10
  TRACK 66 AUDIO
    TITLE "60:cjc160_5408"
    INDEX 01 01:16:13
  TRACK 67 AUDIO
    TITLE "0:"
    INDEX 01 01:17:46
  TRACK 68 AUDIO
    TITLE "61:cjc160_5409"
    INDEX 01 01:18:10
  TRACK 69 AUDIO
    TITLE "0:"
    INDEX 01 01:19:53
  TRACK 70 AUDIO
    TITLE "60:cjc160_5410"
    INDEX 01 01:20:52
  TRACK 71 AUDIO
    TITLE "0:"
    INDEX 01 01:21:54
  TRACK 72 AUDIO
    TITLE "61:cjc160_5411"
    INDEX 01 01:22:16
  TRACK 73 AUDIO
    TITLE "0:"
    INDEX 01 01:23:68
  TRACK 74 AUDIO
    TITLE "60:cjc160_5412"
    INDEX 01 01:24:68
  TRACK 75 AUDIO
    TITLE "0:"
    INDEX 01 01:26:47
  TRACK 76 AUDIO
    TITLE "61:cjc160_5413"
    INDEX 01 01:27:09
  TRACK 77 AUDIO
    TITLE "0:"
    INDEX 01 01:28:38
  TRACK 78 AUDIO
    TITLE "60:cjc160_5414"
    INDEX 01 01:29:40
  TRACK 79 AUDIO
    TITLE "0:"
    INDEX 01 01:30:68
  TRACK 80 AUDIO
    TITLE "61:cjc160_5415"
    INDEX 01 01:31:33
  TRACK 81 AUDIO
    TITLE "0:"
    INDEX 01 01:33:02
  TRACK 82 AUDIO
    TITLE "60:cjc160_5416"
    INDEX 01 01:34:02
  TRACK 83 AUDIO
    TITLE "0:"
    INDEX 01 01:36:02
  TRACK 84 AUDIO
    TITLE "61:cjc160_5417"
    INDEX 01 01:36:40
  TRACK 85 AUDIO
    TITLE "0:"
    INDEX 01 01:38:13
  TRACK 86 AUDIO
    TITLE "60:cjc160_5418"
    INDEX 01 01:39:13
  TRACK 87 AUDIO
    TITLE "0:"
    INDEX 01 01:40:24
  TRACK 88 AUDIO
    TITLE "61:cjc160_5419"
    INDEX 01 01:40:63
  TRACK 89 AUDIO
    TITLE "0:"
    INDEX 01 01:42:31
  TRACK 90 AUDIO
    TITLE "60:cjc160_5420"
    INDEX 01 01:43:30
  TRACK 91 AUDIO
    TITLE "0:"
    INDEX 01 01:44:61
  TRACK 92 AUDIO
    TITLE "61:cjc160_5421"
    INDEX 01 01:45:25
  TRACK 93 AUDIO
    TITLE "0:"
    INDEX 01 01:46:69
  TRACK 94 AUDIO
    TITLE "60:cjc160_5422"
    INDEX 01 01:47:69
  TRACK 95 AUDIO
    TITLE "0:"
    INDEX 01 01:49:27
  TRACK 96 AUDIO
    TITLE "61:cjc160_5423"
    INDEX 01 01:49:64
  TRACK 97 AUDIO
    TITLE "0:"
    INDEX 01 01:52:62
  TRACK 98 AUDIO
    TITLE "60:cjc160_5424"
    INDEX 01 01:53:62
  TRACK 99 AUDIO
    TITLE "0:"
    INDEX 01 01:55:41
  TRACK 100 AUDIO
    TITLE "61:cjc160_5425"
    INDEX 01 01:56:05
  TRACK 101 AUDIO
    TITLE "0:"
    INDEX 01 01:57:63
  TRACK 102 AUDIO
    TITLE "60:cjc160_5426"
    INDEX 01 01:58:59
  TRACK 103 AUDIO
    TITLE "0:"
    INDEX 01 02:00:07
  TRACK 104 AUDIO
    TITLE "61:cjc160_5427"
    INDEX 01 02:00:40
  TRACK 105 AUDIO
    TITLE "0:"
    INDEX 01 02:01:63
  TRACK 106 AUDIO
    TITLE "60:cjc160_5428"
    INDEX 01 02:02:63
  TRACK 107 AUDIO
    TITLE "0:"
    INDEX 01 02:03:66
  TRACK 108 AUDIO
    TITLE "61:cjc160_5429"
    INDEX 01 02:04:28
  TRACK 109 AUDIO
    TITLE "0:"
    INDEX 01 02:05:59
  TRACK 110 AUDIO
    TITLE "60:cjc160_5430"
    INDEX 01 02:06:62
  TRACK 111 AUDIO
    TITLE "0:"
    INDEX 01 02:08:10
  TRACK 112 AUDIO
    TITLE "61:cjc160_5431"
    INDEX 01 02:08:57
  TRACK 113 AUDIO
    TITLE "0:"
    INDEX 01 02:10:15
  TRACK 114 AUDIO
    TITLE "60:cjc160_5432"
    INDEX 01 02:11:22
  TRACK 115 AUDIO
    TITLE "0:"
    INDEX 01 02:12:69
  TRACK 116 AUDIO
    TITLE "61:cjc160_5433"
    INDEX 01 02:13:29
  TRACK 117 AUDIO
    TITLE "0:"
    INDEX 01 02:14:58
  TRACK 118 AUDIO
    TITLE "60:cjc160_5434"
    INDEX 01 02:15:57
  TRACK 119 AUDIO
    TITLE "0:"
    INDEX 01 02:16:67
  TRACK 120 AUDIO
    TITLE "61:cjc160_5435"
    INDEX 01 02:17:29
  TRACK 121 AUDIO
    TITLE "0:"
    INDEX 01 02:19:04
  TRACK 122 AUDIO
    TITLE "60:cjc160_5436"
    INDEX 01 02:20:04
  TRACK 123 AUDIO
    TITLE "0:"
    INDEX 01 02:22:07
  TRACK 124 AUDIO
    TITLE "61:cjc160_5437"
    INDEX 01 02:22:46
  TRACK 125 AUDIO
    TITLE "0:"
    INDEX 01 02:24:35
  TRACK 126 AUDIO
    TITLE "60:cjc160_5438"
    INDEX 01 02:25:32
  TRACK 127 AUDIO
    TITLE "0:"
    INDEX 01 02:26:69
  TRACK 128 AUDIO
    TITLE "61:cjc160_5439"
    INDEX 01 02:27:33
  TRACK 129 AUDIO
    TITLE "0:"
    INDEX 01 02:28:44
  TRACK 130 AUDIO
    TITLE "60:cjc160_5440"
    INDEX 01 02:29:46
  TRACK 131 AUDIO
    TITLE "0:"
    INDEX 01 02:31:25
  TRACK 132 AUDIO
    TITLE "61:cjc160_5441"
    INDEX 01 02:31:62
  TRACK 133 AUDIO
    TITLE "0:"
    INDEX 01 02:33:28
  TRACK 134 AUDIO
    TITLE "60:cjc160_5442"
    INDEX 01 02:34:27
  TRACK 135 AUDIO
    TITLE "0:"
    INDEX 01 02:36:01
  TRACK 136 AUDIO
    TITLE "61:cjc160_5443"
    INDEX 01 02:36:36
  TRACK 137 AUDIO
    TITLE "0:"
    INDEX 01 02:38:17
  TRACK 138 AUDIO
    TITLE "60:cjc160_5444"
    INDEX 01 02:39:19
  TRACK 139 AUDIO
    TITLE "0:"
    INDEX 01 02:40:55
  TRACK 140 AUDIO
    TITLE "61:cjc160_5445"
    INDEX 01 02:41:18
  TRACK 141 AUDIO
    TITLE "0:"
    INDEX 01 02:42:56
  TRACK 142 AUDIO
    TITLE "60:cjc160_5446"
    INDEX 01 02:43:58
  TRACK 143 AUDIO
    TITLE "0:"
    INDEX 01 02:45:35
  TRACK 144 AUDIO
    TITLE "61:cjc160_5447"
    INDEX 01 02:45:72
  TRACK 145 AUDIO
    TITLE "0:"
    INDEX 01 02:47:50
  TRACK 146 AUDIO
    TITLE "60:cjc160_5448"
    INDEX 01 02:48:51
  TRACK 147 AUDIO
    TITLE "0:"
    INDEX 01 02:50:40
  TRACK 148 AUDIO
    TITLE "61:cjc160_5449"
    INDEX 01 02:51:06
  TRACK 149 AUDIO
    TITLE "0:"
    INDEX 01 02:52:68
  TRACK 150 AUDIO
    TITLE "60:cjc160_5450"
    INDEX 01 02:53:70
  TRACK 151 AUDIO
    TITLE "0:"
    INDEX 01 02:55:35
  TRACK 152 AUDIO
    TITLE "61:cjc160_5451"
    INDEX 01 02:55:75
  TRACK 153 AUDIO
    TITLE "0:"
    INDEX 01 02:57:26
  TRACK 154 AUDIO
    TITLE "60:cjc160_5452"
    INDEX 01 02:58:26
  TRACK 155 AUDIO
    TITLE "0:"
    INDEX 01 02:59:47
  TRACK 156 AUDIO
    TITLE "61:cjc160_5453"
    INDEX 01 03:00:21
  TRACK 157 AUDIO
    TITLE "0:"
    INDEX 01 03:01:73
  TRACK 158 AUDIO
    TITLE "60:cjc160_5454"
    INDEX 01 03:02:75
  TRACK 159 AUDIO
    TITLE "0:"
    INDEX 01 03:04:38
  TRACK 160 AUDIO
    TITLE "61:cjc160_5455"
    INDEX 01 03:05:02
  TRACK 161 AUDIO
    TITLE "0:"
    INDEX 01 03:06:66
  TRACK 162 AUDIO
    TITLE "60:cjc160_5456"
    INDEX 01 03:07:64
  TRACK 163 AUDIO
    TITLE "0:"
    INDEX 01 03:09:14
  TRACK 164 AUDIO
    TITLE "61:cjc160_5457"
    INDEX 01 03:09:53
  TRACK 165 AUDIO
    TITLE "0:"
    INDEX 01 03:10:64
  TRACK 166 AUDIO
    TITLE "60:cjc160_5458"
    INDEX 01 03:12:02
  TRACK 167 AUDIO
    TITLE "0:"
    INDEX 01 03:13:08
  TRACK 168 AUDIO
    TITLE "61:cjc160_5459"
    INDEX 01 03:13:45
  TRACK 169 AUDIO
    TITLE "0:"
    INDEX 01 03:14:74
  TRACK 170 AUDIO
    TITLE "60:cjc160_5460"
    INDEX 01 03:15:69
  TRACK 171 AUDIO
    TITLE "0:"
    INDEX 01 03:17:27
  TRACK 172 AUDIO
    TITLE "61:cjc160_5461"
    INDEX 01 03:17:64
  TRACK 173 AUDIO
    TITLE "0:"
    INDEX 01 03:19:28
  TRACK 174 AUDIO
    TITLE "60:cjc160_5462"
    INDEX 01 03:20:27
  TRACK 175 AUDIO
    TITLE "0:"
    INDEX 01 03:22:07
  TRACK 176 AUDIO
    TITLE "61:cjc160_5463"
    INDEX 01 03:22:46
  TRACK 177 AUDIO
    TITLE "0:"
    INDEX 01 03:24:21
